<?xml version="1.0" encoding="UTF-8"?>
<svg width="174px" height="12px" viewBox="0 0 174 12" version="1.1" xmlns="http://www.w3.org/2000/svg" xmlns:xlink="http://www.w3.org/1999/xlink">
    <!-- Generator: Sketch 47.1 (45422) - http://www.bohemiancoding.com/sketch -->
    <title>Page 1</title>
    <desc>Created with Sketch.</desc>
    <defs></defs>
    <g id="Page-1" stroke="none" stroke-width="1" fill="none" fill-rule="evenodd">
        <g id="1380-main" transform="translate(-40.000000, -39.000000)" fill="#FFFFFF">
            <g id="Page-1" transform="translate(40.000000, 39.000000)">
                <polygon id="Fill-1" points="16.4055009 0.260973913 13.2011756 9.74410435 9.94444066 0.260973913 8.11560633 0.260973913 4.9285762 9.76158261 1.68939849 0.260973913 -2.62048193e-05 0.260973913 3.97079006 11.7731478 5.7996244 11.7731478 9.02098283 2.09853913 12.3125702 11.7731478 14.1414045 11.7731478 18.0773684 0.260973913"></polygon>
                <path d="M27.5861277,0.260973913 L22.5008205,11.7731478 L24.1202783,11.7731478 L25.287703,9.10314783 L31.5223536,9.10314783 L32.6889922,11.7731478 L34.3611217,11.7731478 L29.2931096,0.260973913 L27.5861277,0.260973913 Z M28.4052904,1.96001739 L30.8952723,7.64671304 L25.9145223,7.64671304 L28.4052904,1.96001739 Z" id="Fill-2"></path>
                <polygon id="Fill-3" points="49.2514075 0.260973913 49.2514075 9.55393043 42.1981184 0.260973913 40.4392509 0.260973913 40.4392509 11.7731478 42.006037 11.7731478 42.006037 2.48045217 49.0598503 11.7731478 50.8184557 11.7731478 50.8184557 0.260973913"></polygon>
                <path d="M67.0326352,6.01682609 C67.0326352,5.38134783 66.9251955,4.80091304 66.710578,4.27447826 C66.4956985,3.74882609 66.1880539,3.29465217 65.7873822,2.91352174 C65.3867105,2.5323913 64.8993009,2.23786957 64.3246292,2.02943478 C63.7499575,1.82152174 63.0966714,1.71743478 62.3650328,1.71743478 L59.9444937,1.71743478 L59.9444937,10.3162174 L62.3650328,10.3162174 C63.0966714,10.3162174 63.7499575,10.2123913 64.3246292,10.0044783 C64.8993009,9.79604348 65.3867105,9.50152174 65.7873822,9.1203913 C66.1880539,8.73926087 66.4956985,8.28534783 66.710578,7.75943478 C66.9251955,7.23352174 67.0326352,6.65282609 67.0326352,6.01682609 Z M62.2609997,0.261 C63.2709334,0.261 64.1679244,0.414391304 64.9517105,0.720391304 C65.7352346,1.02665217 66.3969063,1.43986957 66.9369877,1.96004348 C67.4768069,2.48021739 67.8890087,3.0896087 68.1735931,3.78926087 C68.4576533,4.48865217 68.6002075,5.23108696 68.6002075,6.01682609 C68.6002075,6.80282609 68.4576533,7.54526087 68.1735931,8.24465217 C67.8890087,8.94430435 67.4768069,9.55395652 66.9369877,10.0738696 C66.3969063,10.5940435 65.7352346,11.0072609 64.9517105,11.3132609 C64.1679244,11.6200435 63.2709334,11.772913 62.2609997,11.772913 L58.3771834,11.772913 L58.3771834,0.261 L62.2609997,0.261 Z" id="Fill-4"></path>
                <polygon id="Fill-6" points="77.0293807 1.71730435 77.0293807 5.2886087 83.1767693 5.2886087 83.1767693 6.74478261 77.0293807 6.74478261 77.0293807 10.3163478 83.2986217 10.3163478 83.2986217 11.7730435 75.4618084 11.7730435 75.4618084 0.260869565 83.2986217 0.260869565 83.2986217 1.71730435"></polygon>
                <path d="M111.91224,10.3163217 C112.573388,10.3163217 113.096436,10.1663217 113.479289,9.8658 C113.862403,9.56527826 114.054222,9.12049565 114.054222,8.5304087 C114.054222,7.94136522 113.862403,7.49658261 113.479289,7.19606087 C113.096436,6.89527826 112.573388,6.74501739 111.91224,6.74501739 L108.219719,6.74501739 L108.219719,10.3163217 L111.91224,10.3163217 Z M111.91224,5.28884348 C112.573388,5.28884348 113.096436,5.13884348 113.479289,4.83806087 C113.862403,4.53727826 114.054222,4.09249565 114.054222,3.50345217 C114.054222,2.91336522 113.862403,2.46858261 113.479289,2.16806087 C113.096436,1.8678 112.573388,1.71727826 111.91224,1.71727826 L108.219719,1.71727826 L108.219719,5.28884348 L111.91224,5.28884348 Z M114.10637,6.01693043 C114.41978,6.19066957 114.675014,6.38371304 114.872337,6.59788696 C115.069921,6.81153913 115.223743,7.03066957 115.334066,7.25632174 C115.444388,7.48197391 115.519596,7.71310435 115.560475,7.94971304 C115.601093,8.18684348 115.621533,8.42684348 115.621533,8.66971304 C115.621533,9.09727826 115.548683,9.49901739 115.40377,9.8744087 C115.258596,10.2500609 115.032186,10.5795391 114.724017,10.8623217 C114.417159,11.1464087 114.030638,11.3684087 113.566289,11.5301478 C113.101939,11.6921478 112.556355,11.7730174 111.929273,11.7730174 L106.652671,11.7730174 L106.652671,0.260843478 L111.929273,0.260843478 C112.556355,0.260843478 113.101939,0.341973913 113.566289,0.503973913 C114.030638,0.665973913 114.417159,0.887452174 114.724017,1.17101739 C115.032186,1.45432174 115.258596,1.78406087 115.40377,2.1591913 C115.548683,2.53536522 115.621533,2.93710435 115.621533,3.3644087 C115.621533,3.60701739 115.601093,3.84675652 115.560475,4.08414783 C115.519596,4.32101739 115.444388,4.55188696 115.334066,4.77753913 C115.223743,5.00266957 115.069921,5.22232174 114.872337,5.43597391 C114.675014,5.65014783 114.41978,5.84345217 114.10637,6.01693043 L114.10637,6.01693043 Z" id="Fill-9"></path>
                <polygon id="Fill-15" points="140.073145 11.7730957 141.639931 11.7730957 141.639931 0.260921739 140.073145 0.260921739"></polygon>
                <path d="M122.570238,0.260869565 L124.137548,0.260869565 L124.137548,7.0053913 C124.137548,8.18426087 124.445193,9.06834783 125.060482,9.65765217 C125.676033,10.2469565 126.51747,10.5417391 127.586103,10.5417391 C128.654211,10.5417391 129.49591,10.2469565 130.110937,9.65765217 C130.726488,9.06834783 131.034133,8.18426087 131.034133,7.0053913 L131.034133,0.260869565 L132.601705,0.260869565 L132.601705,7.0053913 C132.601705,7.8026087 132.482473,8.51347826 132.244533,9.13721739 C132.006332,9.76173913 131.669862,10.2850435 131.234338,10.7068696 C130.798814,11.1286957 130.270786,11.4495652 129.649994,11.6686957 C129.028678,11.888087 128.340539,11.9981739 127.586103,11.9981739 C126.831142,11.9981739 126.143265,11.888087 125.522473,11.6686957 C124.901157,11.4495652 124.372868,11.1286957 123.937344,10.7068696 C123.502082,10.2850435 123.16535,9.76173913 122.92741,9.13721739 C122.689208,8.51347826 122.570238,7.8026087 122.570238,7.0053913 L122.570238,0.260869565 Z" id="Fill-12"></path>
                <polygon id="Fill-17" points="150.765995 10.3163217 157.035498 10.3163217 157.035498 11.7730174 149.198947 11.7730174 149.198947 0.260843478 150.765995 0.260843478"></polygon>
                <path d="M172.291315,6.01682609 C172.291315,5.38134783 172.184137,4.80091304 171.969258,4.27447826 C171.754116,3.74882609 171.446471,3.29465217 171.046062,2.91352174 C170.645652,2.5323913 170.157718,2.23786957 169.583309,2.02943478 C169.008637,1.82152174 168.355089,1.71743478 167.623712,1.71743478 L165.202911,1.71743478 L165.202911,10.3162174 L167.623712,10.3162174 C168.355089,10.3162174 169.008637,10.2123913 169.583309,10.0044783 C170.157718,9.79604348 170.645652,9.50152174 171.046062,9.1203913 C171.446471,8.73926087 171.754116,8.28534783 171.969258,7.75943478 C172.184137,7.23352174 172.291315,6.65282609 172.291315,6.01682609 L172.291315,6.01682609 Z M167.519155,0.261 C168.529613,0.261 169.42608,0.414391304 170.21039,0.720391304 C170.994176,1.02665217 171.655586,1.43986957 172.195667,1.96004348 C172.735486,2.48021739 173.147688,3.0896087 173.432273,3.78926087 C173.716071,4.48865217 173.858363,5.23108696 173.858363,6.01682609 C173.858363,6.80282609 173.716071,7.54526087 173.432273,8.24465217 C173.147688,8.94430435 172.735486,9.55395652 172.195667,10.0738696 C171.655586,10.5940435 170.994176,11.0072609 170.21039,11.3132609 C169.42608,11.6200435 168.529613,11.772913 167.519155,11.772913 L163.636125,11.772913 L163.636125,0.261 L167.519155,0.261 Z" id="Fill-18"></path>
                <path d="M98.2580883,3.642 C98.2580883,3.006 98.0521184,2.52678261 97.6401786,2.20278261 C97.2277148,1.87904348 96.6674557,1.71730435 95.9596636,1.71730435 L92.0758473,1.71730435 L92.0758473,5.56591304 L95.7177931,5.56591304 C96.7337539,5.56591304 97.2277148,5.40469565 97.6401786,5.08069565 C98.0521184,4.75721739 98.2580883,4.27747826 98.2580883,3.642 M99.8256605,3.642 C99.8256605,4.104 99.7499286,4.54043478 99.599513,4.95078261 C99.4483111,5.36113043 99.0772509,5.83304348 98.653781,6.13434783 C98.2305732,6.4353913 97.5049617,6.69626087 96.9578051,6.75391304 C97.0364196,6.91695652 100.139332,11.7730435 100.139332,11.7730435 L98.3589768,11.7730435 L95.3616696,7.02234783 L92.0758473,7.02234783 L92.0758473,11.7730435 L90.508537,11.7730435 L90.508537,0.260869565 L95.9596636,0.260869565 C96.6210732,0.260869565 97.1960069,0.350608696 97.6839407,0.529043478 C98.1713503,0.709043478 98.5743804,0.951652174 98.8940792,1.25765217 C99.213516,1.56417391 99.4483111,1.92234783 99.599513,2.33243478 C99.7499286,2.74356522 99.8256605,3.18 99.8256605,3.642" id="Fill-19"></path>
            </g>
        </g>
    </g>
</svg>