<?xml version="1.0" encoding="utf-8"?>
<!-- Generator: Adobe Illustrator 19.2.0, SVG Export Plug-In . SVG Version: 6.00 Build 0)  -->
<svg version="1.1" id="Capa_1" xmlns="http://www.w3.org/2000/svg" xmlns:xlink="http://www.w3.org/1999/xlink" x="0px" y="0px"
	 viewBox="0 0 493.4 493.4" style="enable-background:new 0 0 493.4 493.4;" xml:space="preserve">
<style type="text/css">
	.st0{fill:#FFFFFF;}
</style>
<g>
	<path class="st0" d="M490.8,212.7c-1.7-1.7-3.9-2.6-6.6-2.6H127.9v-64c0-3.8-1.8-6.6-5.4-8.3c-3.6-1.5-7-0.9-10,1.7L2.9,240.7
		c-1.9,1.9-2.9,4.2-2.9,6.9c0,2.5,0.9,4.7,2.9,6.6L112.5,354c3,2.5,6.4,3,10,1.4c3.6-1.5,5.4-4.3,5.4-8.3v-64h356.3
		c2.7,0,4.9-0.9,6.6-2.6c1.7-1.7,2.6-3.9,2.6-6.6v-54.8C493.4,216.6,492.5,214.4,490.8,212.7z"/>
</g>
</svg>
