<svg width="174" height="12" viewBox="0 0 174 12" xmlns="http://www.w3.org/2000/svg">
    <title>
        Page 1
    </title>
    <g fill="#FFF" fill-rule="evenodd">
        <path d="M16.406.261L13.2 9.744 9.944.261H8.116l-3.187 9.5-3.24-9.5H0l3.97 11.512H5.8L9.02 2.1l3.292 9.674h1.828L18.077.261z"/>
        <path d="M27.586.261l-5.085 11.512h1.62l1.167-2.67h6.234l1.167 2.67h1.672L29.293.261h-1.707zm.82 1.699l2.49 5.687h-4.981l2.49-5.687z"/>
        <path d="M49.251.261v9.293L42.198.26H40.44v11.512h1.567V2.48l7.054 9.293h1.758V.261z"/>
        <path d="M67.033 6.017c0-.636-.108-1.216-.322-1.743a3.882 3.882 0 0 0-.924-1.36 4.137 4.137 0 0 0-1.462-.885c-.575-.207-1.228-.312-1.96-.312h-2.42v8.6h2.42c.732 0 1.385-.105 1.96-.313a4.137 4.137 0 0 0 1.462-.884c.401-.38.709-.835.924-1.36a4.57 4.57 0 0 0 .322-1.743zM62.26.26c1.01 0 1.907.153 2.69.46.784.306 1.446.719 1.986 1.239.54.52.952 1.13 1.237 1.83.284.699.426 1.441.426 2.227 0 .786-.142 1.528-.426 2.228-.285.7-.697 1.309-1.237 1.829-.54.52-1.202.933-1.985 1.24-.784.306-1.681.459-2.691.459h-3.884V.26h3.884z"/>
        <path d="M77.03 1.717V5.29h6.147v1.456h-6.148v3.571h6.27v1.457h-7.837V.261h7.837v1.456z"/>
        <path d="M111.912 10.316c.661 0 1.184-.15 1.567-.45.383-.3.575-.746.575-1.336 0-.589-.192-1.033-.575-1.334-.383-.3-.906-.451-1.567-.451h-3.692v3.571h3.692zm0-5.027c.661 0 1.184-.15 1.567-.45.383-.302.575-.747.575-1.336 0-.59-.192-1.034-.575-1.335-.383-.3-.906-.45-1.567-.45h-3.692v3.57h3.692zm2.194.728c.314.174.569.367.766.58.198.215.352.434.462.66.11.225.186.456.226.693.041.237.062.477.062.72 0 .427-.073.829-.218 1.204a2.6 2.6 0 0 1-.68.988 3.253 3.253 0 0 1-1.158.668c-.464.162-1.01.243-1.637.243h-5.276V.261h5.276c.627 0 1.173.081 1.637.243.465.162.851.383 1.158.667.308.283.535.613.68.988.145.376.218.778.218 1.205 0 .243-.02.483-.062.72-.04.237-.116.468-.226.694-.11.225-.264.444-.462.658a3.014 3.014 0 0 1-.766.58z"/>
        <path d="M140.073 11.773h1.567V.261h-1.567z"/>
        <path d="M122.57.26h1.568v6.745c0 1.18.307 2.063.922 2.653.616.589 1.457.884 2.526.884 1.068 0 1.91-.295 2.525-.884.615-.59.923-1.474.923-2.653V.261h1.568v6.744c0 .798-.12 1.508-.357 2.132a4.263 4.263 0 0 1-1.01 1.57 4.299 4.299 0 0 1-1.585.962c-.621.22-1.31.33-2.064.33-.755 0-1.443-.11-2.064-.33a4.298 4.298 0 0 1-1.585-.962 4.262 4.262 0 0 1-1.01-1.57c-.238-.624-.357-1.334-.357-2.132V.261z"/>
        <path d="M150.766 10.316h6.27v1.457h-7.837V.261h1.567z"/>
        <path d="M172.291 6.017c0-.636-.107-1.216-.322-1.743a3.889 3.889 0 0 0-.923-1.36 4.137 4.137 0 0 0-1.463-.885c-.574-.207-1.228-.312-1.96-.312h-2.42v8.6h2.42c.732 0 1.386-.105 1.96-.313a4.137 4.137 0 0 0 1.463-.884c.4-.38.708-.835.923-1.36a4.565 4.565 0 0 0 .322-1.743zM167.52.26c1.01 0 1.907.153 2.691.46.784.306 1.446.719 1.986 1.239.54.52.952 1.13 1.236 1.83.284.699.426 1.441.426 2.227 0 .786-.142 1.528-.426 2.228-.284.7-.697 1.309-1.236 1.829-.54.52-1.202.933-1.986 1.24-.784.306-1.68.459-2.69.459h-3.884V.26h3.883z"/>
        <path d="M98.258 3.642c0-.636-.206-1.115-.618-1.44-.412-.323-.973-.485-1.68-.485h-3.884v3.849h3.642c1.016 0 1.51-.161 1.922-.485.412-.324.618-.804.618-1.439m1.568 0c0 .462-.076.898-.226 1.309-.152.41-.523.882-.946 1.183-.423.301-1.149.562-1.696.62.078.163 3.181 5.019 3.181 5.019h-1.78l-2.997-4.75h-3.286v4.75h-1.567V.261h5.45c.662 0 1.237.09 1.725.268.487.18.89.423 1.21.729.32.306.554.664.706 1.074.15.412.226.848.226 1.31"/>
    </g>
</svg>
